<svg xmlns="http://www.w3.org/2000/svg" xmlns:svg="http://www.w3.org/2000/svg" xmlns:xlink="http://www.w3.org/1999/xlink" id="svg3091" width="385.016" height="248.166" x="0" y="0" enable-background="new 0 0 385.016 248.166" version="1.1" viewBox="0 0 385.016 248.166" xml:space="preserve"><metadata id="metadata3097"><sfw xmlns="http://ns.adobe.com/SaveForWeb/1.0/"><slices/><sliceSourceBounds width="900.333" height="375.552" x="-672.333" y="-207.836" bottomLeftOrigin="true"/></sfw></metadata><image id="image3099" width="395" height="255" enable-background="new" overflow="visible" transform="matrix(1 0 0 1 -514.3333 120.836)" xlink:href="BC7948B7.jpg"/><g id="g3307"><g><path fill="#949598" d="M124,121.299v-121H0v121H124z M41.959,78.79c-3.803-0.835-10.992-8.018-13.425-13.416 c-1.775-3.936-1.776-4.151-0.032-6.078c2.521-2.786,3.175-2.551,5.481,1.969c1.113,2.182,2.978,4.478,4.145,5.102 c2.796,1.497,5.748-0.691,12.102-8.969c5.236-6.821,5.906-10.136,3.306-16.358c-2.586-6.189-6.282-8.374-15.531-9.181 l-8.165-0.712l-8.142-7.174l-8.142-7.174l44.413-0.261l44.413-0.26l3.308,3.207c1.82,1.764,3.308,3.568,3.308,4.011 c0,0.442-2.925,0.804-6.5,0.804H96l-0.231,19.25c-0.127,10.588-0.239,29.223-0.25,41.412c-0.011,12.189-0.274,22.418-0.584,22.732 c-0.311,0.313-2.223-1.129-4.25-3.204L87,100.715V61.369l-3.076-3.504c-3.505-3.992-8.467-5.419-12.69-3.649 c-1.544,0.647-4.91,4.278-7.733,8.342C53.406,77.086,49.071,80.352,41.959,78.79z"/><path fill="#949598" d="M347.5,24.799l-16.925-0.275c-15.716-0.255-21.919,0.579-16.676,2.243 c1.155,0.367,2.101,1.086,2.101,1.599s0.601,0.933,1.336,0.933c1.431,0,14.67,13.237,14.655,14.653 c-0.005,0.466-1.457,1.972-3.227,3.347c-4.45,3.457-10.743,9.016-13.559,11.977l-2.355,2.477l2.325,0.918 c12.473,4.923,24.667,12.791,29.087,18.769c1.163,1.573,2.486,2.86,2.941,2.86c0.455,0,0.708-13.388,0.562-29.75L347.5,24.799z"/><path fill="#949598" d="M262,0.299v121h124v-121H262z M327.077,101.376c-3.391,3.391-8.006,3.844-12.26,1.205 c-4.527-2.808-5.019-7.7-1.228-12.206c1.946-2.313,3.424-3.077,5.953-3.077C328.914,87.299,333.182,95.272,327.077,101.376z M356.5,24.799l-1,85l-2.246-3.5c-1.235-1.925-2.248-3.842-2.25-4.26c-0.008-1.598-7.341-11.101-11.635-15.08 c-8.143-7.544-16.047-10.702-30.522-12.196c-5.51-0.569-5.795-0.752-11.25-7.243c-3.078-3.663-5.597-6.988-5.597-7.39 c0-0.966,15.182-13.607,21.387-17.808l4.887-3.308l-2.281-1.72c-2.998-2.261-11.784-4.994-16.081-5.001 c-6.655-0.011-10.398-1.878-17.957-8.956l-7.455-6.981l89.293-0.057l6.601,7.5L356.5,24.799z"/><path fill="#949598" d="M343,127.299c-31.127,0-43,0.31-43,1.122c0,0.792-0.372,0.813-1.266,0.072 c-0.871-0.723-47.654-1.082-150-1.152L0,127.24v121.096l193-0.17l193-0.17V127.299H343z M252.059,134.299 c-0.582,0-1.059-0.45-1.059-1s0.198-1,0.441-1s0.719,0.45,1.059,1C252.84,133.849,252.641,134.299,252.059,134.299z M254.51,129.316c-0.345-0.559,0.073-1.016,0.931-1.016c0.857,0,1.559,0.198,1.559,0.441 C257,129.796,255.081,130.239,254.51,129.316z M269,130.141c-1.375,0-1.938-0.227-1.25-0.504s1.813-0.277,2.5,0 S270.375,130.141,269,130.141z M278.583,213.22c-1.054,0.043-1.645-0.193-1.313-0.525c0.332-0.332,1.195-0.368,1.917-0.079v0 C279.985,212.935,279.748,213.172,278.583,213.22z M281.559,210.299c-0.243,0-0.719-0.45-1.059-1c-0.34-0.55-0.141-1,0.441-1 s1.059,0.45,1.059,1C282,209.849,281.802,210.299,281.559,210.299z"/><path fill="#949598" d="M207.313,69.418c2.372,2.41,5.572,6.065,7.111,8.122s3.086,3.563,3.437,3.346 c0.351-0.217,0.513-13.037,0.358-28.49l-0.28-28.096h-19.47c-10.708,0-19.47,0.373-19.47,0.829s3.263,3.385,7.25,6.508 s8.681,7.813,10.429,10.421C200.241,47.37,203,55.792,203,61.349C203,64.351,203.801,65.85,207.313,69.418z"/><path fill="#949598" d="M255.016,121.299L254.5,0.799L131,0.284v121.015H255.016z M169.421,72.009 c-0.698-5.545,2.14-10.154,7.85-12.746c4.636-2.105,11.762-2.552,14.795-0.929c1.699,0.909,1.932,0.696,1.912-1.75 c-0.034-4.307-3.35-10.622-7.276-13.856c-1.956-1.611-7.077-4.219-11.379-5.795s-9.398-3.579-11.323-4.451 c-3.64-1.649-18-13.897-18-15.352c0-0.457,19.772-0.831,43.937-0.831h43.937l7.088,7.5l-6.981,0.294L227,24.387v41.956 c0,25.623-0.367,41.956-0.943,41.956c-1.168,0-4.057-4.016-4.057-5.64c0-2.546-3.958-10.243-7.117-13.841 c-1.823-2.076-5.673-5.517-8.556-7.647c-5.06-3.738-7.795-4.732-8.493-3.086c-0.902,2.128-7.295,5.363-11.609,5.874 C177.705,84.968,170.398,79.771,169.421,72.009z"/><path fill="#949598" d="M85.202,50.394c0.707,1.598,1.401,2.906,1.542,2.906S87,46.774,87,38.799v-14.5H69 c-9.9,0-18,0.372-18,0.826s1.184,1.917,2.632,3.25c3.219,2.965,6.316,9.435,6.346,13.256L60,44.462l3.25-1.953 c1.788-1.074,4.484-2.244,5.992-2.599C74.421,38.692,82.318,43.879,85.202,50.394z"/></g><path id="path3311" fill="#E64232" d="M105.75,247.68c-0.291-0.484-0.156-3.131,0.301-5.881 c1.414-8.512,1.186-10.312-1.483-11.718c-3.59-1.892-8.568-9.281-8.568-12.717c0-1.863,0.773-3.493,2.096-4.42 c1.523-1.066,1.908-2.059,1.41-3.629c-0.421-1.325-1.236-1.95-2.107-1.616c-1.497,0.574-6.398-1.251-6.398-2.383 c0-1.019-9.043-4.74-13.306-5.474c-2.093-0.36-4.481-1.418-5.306-2.35c-7.612-8.599-15.016-15.294-8.978-8.117 c1.424,1.692,2.589,3.6,2.589,4.24c0,1.508-4.057-2.891-6.517-7.067c-1.053-1.788-2.499-3.25-3.214-3.25 c-2.213,0-5.262-6.219-5.266-10.742c-0.003-3.156-0.516-4.561-2.004-5.491c-1.1-0.687-2.01-1.703-2.022-2.258 c-0.012-0.555-0.951-2.134-2.085-3.509c-2.017-2.444-2.052-2.449-1.571-0.25c0.27,1.238,0.084,2.25-0.415,2.25 S42,162.467,42,161.449c0-4.049-13.627-10.521-16.737-7.949c-0.68,0.563-1.904,0.767-2.718,0.455s-1.747-0.138-2.072,0.388 c-0.325,0.526-0.114,0.956,0.468,0.956S22,155.778,22,156.362c0,0.585-0.831,0.922-1.846,0.75s-2.478,0.195-3.25,0.815 s-2.529,1.424-3.904,1.786c-2.417,0.637-2.409,0.607,0.25-0.91c3.385-1.931,3.547-3.505,0.361-3.505 c-2.987,0-7.182-3.267-6.211-4.838c0.395-0.639,1.592-1.162,2.659-1.162s1.941-0.45,1.941-1s-1.323-1-2.941-1 c-3.889,0-4.859-1.761-1.442-2.619c2.413-0.606,2.521-0.807,1.023-1.903c-1.517-1.11-1.414-1.403,1.092-3.102 c3.176-2.154,14.399-2.372,23.343-0.454c3.636,0.78,6.266,0.793,9.039,0.047c2.772-0.747,5.684-0.732,10.002,0.052 c3.35,0.608,6.382,0.79,6.738,0.405c0.355-0.385,0.084-0.901-0.604-1.146c-0.688-0.246-1.25-1.084-1.25-1.863 c0-1.655-1.667-1.915-2.192-0.341c-0.214,0.642-1.432,0.806-3.02,0.408c-2.395-0.601-2.552-0.908-1.564-3.075 c1.331-2.922,4.083-3.091,10.898-0.671c3.988,1.416,5.256,1.509,6.871,0.5c2.545-1.59,4.299-1.583,3.726,0.013 c-0.658,1.835,1.114,4.75,2.888,4.75c1.367,0,1.363,0.173-0.035,1.571c-2.122,2.122-1.998,2.429,0.988,2.429 c1.463,0,2.293-0.431,1.937-1.007c-0.342-0.554,0.069-1.272,0.914-1.597c0.845-0.324,1.824-2.121,2.175-3.993 c0.515-2.743,1.102-3.404,3.027-3.404c1.314,0,2.389,0.45,2.389,1s-0.675,1-1.5,1s-1.5,0.492-1.5,1.092 c0,1.855,3.45,5.591,4.76,5.154c0.683-0.228,1.247,0.41,1.255,1.42c0.013,1.55,0.165,1.601,0.985,0.333c1.554-2.404,1.155-4-1-4 c-1.452,0-2-0.667-2-2.433c0-2.733,1.25-3.275,8.062-3.493c3.444-0.111,5.014,0.352,6.405,1.89c1.014,1.12,2.427,2.036,3.141,2.036 c2.533,0,6.462,2.375,5.985,3.618c-0.293,0.762,0.88,1.713,2.961,2.399c1.895,0.625,3.446,1.522,3.446,1.992 c0,1.248-3.771,2.243-5.241,1.382c-0.692-0.405-0.434,0.205,0.574,1.356c1.778,2.029,1.777,2.122-0.014,3.081 c-1.32,0.707-2.841,0.53-5.333-0.621c-1.917-0.885-4.611-1.916-5.986-2.291c-2.042-0.556-2.131-0.703-0.491-0.799 c1.105-0.065,2.608-1.077,3.34-2.249c1.252-2.005,1.178-2.093-1.259-1.481c-2.056,0.516-2.59,0.285-2.591-1.119 c0-1.165-0.825-1.816-2.414-1.908c-1.994-0.115-2.341,0.257-1.999,2.143c0.269,1.484-0.171,2.506-1.259,2.924 c-1.461,0.561-1.382,0.845,0.622,2.249c2.009,1.407,2.094,1.719,0.686,2.507c-1.027,0.575-2.427,0.447-3.872-0.352 c-2.817-1.558-4.224-1.288-7.321,1.405c-4.151,3.61-2.921,5.265,5.808,7.813c2.613,0.763,4.75,1.908,4.75,2.546 c0,0.638,0.675,1.719,1.5,2.404c1.266,1.05,1.5,0.852,1.5-1.271c0-1.426,0.722-2.793,1.667-3.155c1.271-0.488,1.39-0.917,0.5-1.807 c-0.642-0.642-1.167-2.574-1.167-4.294c0-2.907,0.212-3.096,3.005-2.686c1.653,0.243,4.015,1.507,5.25,2.81 c2.652,2.798,3.624,2.951,5.182,0.82c1.001-1.369,1.405-1.124,2.986,1.812c1.006,1.867,3.122,3.968,4.702,4.667 c1.968,0.871,2.874,2,2.874,3.581c0,1.27,0.675,2.568,1.5,2.885c2.747,1.054,1.547,2.638-2,2.638c-3.707,0-4.288-0.758-2.25-2.936 c1.03-1.101,0.81-1.203-1.25-0.582c-1.375,0.415-3.85,0.738-5.5,0.717c-2.024-0.025-2.443,0.181-1.287,0.632 c0.942,0.368,1.842,1.119,2,1.669c0.158,0.55,1.075,0.946,2.037,0.88c0.963-0.066,1.75,0.199,1.75,0.589 c0,1.086-5.025,3.133-6.084,2.478c-1.359-0.84-5.048,0.53-4.372,1.624c0.315,0.51-0.143,0.928-1.019,0.928s-2.5,1.538-3.609,3.418 c-1.109,1.88-3.135,4.151-4.503,5.047c-2.139,1.401-2.403,2.146-1.889,5.332l0.597,3.703l-2.348-2.751 c-2.169-2.541-2.793-2.717-8.169-2.308c-3.201,0.243-5.992,0.614-6.201,0.824c-0.21,0.21-0.652,1.737-0.984,3.395 c-0.42,2.102-0.099,3.517,1.061,4.677c2.052,2.052,2.959,2.083,4.878,0.164c2.486-2.486,4.786-1.918,4.053,1 c-0.551,2.195-0.305,2.5,2.019,2.5c2.29,0,2.607,0.37,2.358,2.75c-0.247,2.36,0.114,2.796,2.545,3.074 c1.558,0.178,4.333-0.387,6.166-1.257c2.513-1.193,3.984-1.334,5.982-0.574c1.457,0.554,3.885,1.007,5.395,1.007s3.712,0.9,4.893,2 c1.181,1.1,3.26,2,4.62,2c1.557,0,3.199,1.019,4.432,2.75c1.264,1.775,3.681,3.245,6.818,4.147c5.832,1.677,10.36,3.85,10.36,4.973 c0,0.45-1.124,2.126-2.499,3.724s-2.499,3.818-2.5,4.933c-0.002,3.154-2.628,6.148-5.982,6.819c-1.968,0.394-3.375,1.459-3.961,3 c-0.5,1.314-2.058,3.63-3.463,5.146c-2.327,2.511-3.348,2.802-11.435,3.263C110.276,248.333,106.041,248.164,105.75,247.68 L105.75,247.68z M66.75,141.61c-0.963-0.252-2.537-0.252-3.5,0s-0.175,0.457,1.75,0.457S67.713,141.862,66.75,141.61z M322.323,247.612c-1.198-0.238-2.715-1.08-3.372-1.872c-1.374-1.655-4.389-1.84-8.551-0.523c-1.595,0.505-4.137,1.188-5.649,1.519 l-2.75,0.602v-7.019c0-3.86,0.389-7.019,0.865-7.019c0.475,0,2.388-1.345,4.25-2.989c1.862-1.644,3.981-2.77,4.71-2.503 s1.998-0.187,2.821-1.011c2.21-2.21,6.354-1.952,6.354,0.396c0,1.702,1.797,3.107,3.973,3.107c0.445,0,1.092-1.125,1.437-2.5 c0.813-3.238,1.909-3.163,3.67,0.25c0.78,1.512,3.106,4.351,5.169,6.308c4.278,4.059,5.025,8.667,1.909,11.782 C335.348,247.951,327.802,248.7,322.323,247.612z M198.869,244.596c-0.614-1.538-2.022-5.047-3.128-7.797s-1.961-6.012-1.901-7.25 c0.061-1.238,0.212-3.803,0.335-5.7c0.147-2.261-0.447-4.195-1.725-5.611c-1.072-1.188-1.95-3.348-1.95-4.8 c0-1.912-0.462-2.563-1.675-2.363c-0.921,0.152-1.938-0.15-2.261-0.672c-0.336-0.543-3.725-0.711-7.925-0.394 c-7.33,0.554-7.344,0.55-11.322-3.044c-3.569-3.225-3.983-4.088-3.983-8.3c0-4.117,0.476-5.177,3.833-8.534 c2.108-2.108,3.833-4.297,3.833-4.865c0-0.567,0.675-1.29,1.5-1.607c1.905-0.731,1.945-2.977,0.065-3.698 c-0.844-0.324-1.399-1.809-1.348-3.607c0.081-2.864,0.329-3.056,3.935-3.056c3.181,0,3.848-0.347,3.848-2c0-1.111-0.667-2-1.5-2 c-2.642,0-1.606-1.674,1.75-2.829l3.25-1.119l-3.343,0.315c-3.158,0.297-3.313,0.164-2.799-2.408 c0.708-3.541-0.369-4.569-1.794-1.711c-1.367,2.741-4.516,3.63-4.155,1.173c0.137-0.933,1.113-2.328,2.17-3.101 s1.921-1.942,1.921-2.598s0.754-1.338,1.675-1.516c1.101-0.212,2.254,0.898,3.364,3.236c0.929,1.957,2.114,3.559,2.634,3.559 s0.667,0.45,0.327,1c-0.988,1.599,2.128,1.154,3.5-0.5c0.685-0.825,1.895-1.5,2.69-1.5c0.96,0,1.244-0.632,0.848-1.882 c-0.377-1.187-0.033-2.098,0.933-2.469c0.841-0.323,1.53-0.151,1.53,0.382c0,0.533,0.436,0.969,0.969,0.969 s0.697-0.708,0.364-1.574c-0.429-1.118-1.335-1.391-3.124-0.942c-1.59,0.399-2.826,0.15-3.349-0.676 c-1.652-2.604-0.786-4.482,3.066-6.646c2.159-1.214,4.495-3.491,5.19-5.061c0.959-2.168,2.503-3.245,6.412-4.478 c5.687-1.793,10.064-2.092,10.896-0.746c0.298,0.482,2.54,1.38,4.983,1.995c2.442,0.615,5.118,1.795,5.946,2.623 c1.903,1.903,2.648,1.905,2.648,0.005c0-0.825,0.675-1.5,1.5-1.5s1.5,0.488,1.5,1.083c0,0.596,0.563,0.896,1.25,0.667 s1.25-0.904,1.25-1.5s0.337-1.421,0.75-1.833c0.413-0.413,0.75-0.294,0.75,0.264c0,0.571,2.403,0.984,5.5,0.946 c5.244-0.066,6.954-0.86,4.25-1.976c-0.688-0.284,0.325-0.25,2.25,0.075c1.925,0.325,3.65,0.97,3.833,1.432 s1.001,0.841,1.817,0.841c0.975,0,1.288-0.619,0.912-1.802c-0.315-0.991,0.078-2.679,0.872-3.75 c1.145-1.545,1.818-1.724,3.255-0.866c2.049,1.223,8.636,0.75,9.144-0.657c0.183-0.508,1.03-0.924,1.882-0.924 s3.022-0.911,4.824-2.024c3.626-2.241,18.741-4.624,22.826-3.599c1.569,0.394,2.615,1.455,2.815,2.855 c0.262,1.825,1.221,2.379,5.299,3.06c2.837,0.474,5.106,0.45,5.274-0.054c0.581-1.742,6.052-0.09,6.596,1.992 c0.363,1.388,1.05,1.83,2.172,1.4c0.903-0.346,3.149-0.63,4.992-0.63c2.473,0,3.517-0.524,3.986-2 c0.756-2.383,2.098-2.545,4.143-0.5c0.825,0.825,2.566,1.5,3.87,1.5c1.303,0,2.648,0.45,2.988,1s2.526,1,4.859,1 c2.333,0,4.711,0.47,5.284,1.043c0.574,0.574,4.824,1.052,9.446,1.062c6.107,0.013,9.599,0.548,12.784,1.957 c2.41,1.066,4.887,1.945,5.504,1.953c0.618,0.008,1.796,0.441,2.618,0.961c2.344,1.482-1.789,4.205-4.324,2.848 c-2.391-1.279-6.761-0.221-6.108,1.479c0.659,1.717-7.866,4.744-15.813,5.615c-0.413,0.045-0.75,1.119-0.75,2.386 c0,2.451-6.149,9.214-7.316,8.047c-0.376-0.377-0.684-2.125-0.684-3.885c0-2.626,0.718-3.676,4-5.848c2.2-1.456,4-2.769,4-2.919 c0-1.116-7.524,0.296-8.469,1.589c-0.913,1.249-2.425,1.526-6.607,1.208c-4.548-0.345-6.046-0.001-9.285,2.134 c-4.126,2.719-3.913,4.203,0.656,4.581c1.776,0.147,2.757,0.836,2.856,2.006c0.082,0.98,0.195,2.307,0.25,2.949 c0.055,0.642-0.427,1.342-1.071,1.557c-0.745,0.248-0.976-0.358-0.633-1.667c0.306-1.169,0.056-2.057-0.579-2.057 c-0.614,0-1.117,0.812-1.117,1.804c0,2.089-5.938,8.196-7.969,8.196c-0.756,0-2.169,0.719-3.14,1.599 c-1.353,1.224-1.553,2.161-0.853,4c0.502,1.321,0.736,2.401,0.52,2.401s-1.105,0.273-1.975,0.607 c-1.055,0.405-1.582,0.048-1.582-1.071c0-0.923-0.563-2.225-1.25-2.893c-1.534-1.491-5.5-1.856-6.289-0.579 c-0.318,0.515,0.46,0.963,1.73,0.995c1.988,0.051,2.086,0.211,0.704,1.154c-1.297,0.885-1.403,1.63-0.552,3.886 c1.509,3.999-0.438,6.998-6.286,9.681c-2.663,1.221-5.49,2.221-6.283,2.221c-2.371,0-2.791,1.138-1.24,3.354 c1.84,2.627,1.83,3.138-0.099,5.067c-1.35,1.35-1.932,1.378-4.25,0.209c-1.477-0.745-3.21-1.167-3.851-0.938 c-0.641,0.23-1.459-0.507-1.817-1.637c-0.359-1.13-1.19-2.055-1.848-2.055s-1.64-1.012-2.183-2.25 c-0.543-1.238-2.007-2.395-3.253-2.572c-2.815-0.4-10.234,5.254-10.234,7.799c0,2.974-2.745,3.163-4.963,0.343 c-1.12-1.424-2.037-3.193-2.037-3.93s-1.539-2.742-3.421-4.454c-2.739-2.492-4.434-3.168-8.5-3.387 c-4.995-0.269-6.657,0.632-3.443,1.865c1.481,0.568,1.46,0.822-0.225,2.685c-2.11,2.331-8.324,5.337-13.17,6.37 c-4.608,0.982-3.081,2.454,1.86,1.791l4.101-0.55l-1.503,2.906c-0.827,1.598-3.788,4.833-6.581,7.188l-5.078,4.282l0.585,5.707 c0.544,5.309,0.421,5.777-1.77,6.707c-1.503,0.638-2.469,1.995-2.671,3.75c-0.174,1.512-0.634,2.75-1.023,2.75 s-1.526,1.521-2.527,3.381c-2.026,3.761-4.324,5.177-9.891,6.094C200.311,247.339,199.889,247.151,198.869,244.596L198.869,244.596 z M224.63,200.985c-0.106-0.723-1.079-2.507-2.162-3.964c-1.083-1.457-2.8-3.821-3.817-5.254c-1.017-1.433-2.05-2.403-2.297-2.157 c-1.021,1.021,6.423,12.689,8.095,12.689C224.655,202.299,224.736,201.708,224.63,200.985L224.63,200.985z M238,191.299 c0-0.55-0.643-1-1.429-1s-2.157-0.729-3.048-1.619c-2.289-2.289-3.228-0.817-1.029,1.613C234.383,192.38,238,193.041,238,191.299z M201,185.366c0-0.513,3.488-0.851,7.75-0.75c7.578,0.179,7.757,0.128,8.043-2.317c0.212-1.809,0.036-2.119-0.638-1.122 c-0.587,0.868-1.436,1.062-2.293,0.525c-0.749-0.469-2.15-0.724-3.113-0.565c-1.129,0.186-2.116-0.672-2.778-2.414 c-0.958-2.519-2.471-2.626-2.471-0.174c0,2.417-2.483,1.683-3.958-1.169c-0.867-1.676-2.918-3.741-4.559-4.589 c-3.937-2.036-3.857-0.439,0.095,1.896l3.078,1.818l-2.036,1.897c-2.217,2.066-4.12,2.48-4.12,0.897c0-0.55,0.675-1,1.5-1 c2.388,0,1.68-1.331-1.929-3.629c-2.146-1.366-3.833-1.822-4.708-1.273c-0.75,0.471-2.038,0.649-2.863,0.395 c-0.908-0.279-2.438,0.913-3.879,3.023c-1.407,2.06-3.212,3.484-4.417,3.484c-1.121,0-1.798,0.24-1.505,0.533 s3.674,0.158,7.514-0.301c8.132-0.971,9.287-0.741,9.287,1.852c0,1.231,0.695,1.917,1.941,1.917c1.068,0,2.219,0.45,2.559,1 C198.28,186.562,201,186.614,201,185.366L201,185.366z M205.271,181.695c0.332-0.332,1.195-0.368,1.917-0.079 c0.798,0.319,0.561,0.556-0.604,0.604C205.529,182.264,204.939,182.027,205.271,181.695L205.271,181.695z M189.625,177.502 c-0.271-0.439-0.08-1.451,0.426-2.25c0.717-1.134,0.922-0.959,0.934,0.798C191,178.362,190.492,178.905,189.625,177.502z M221.085,173.177c-1.328-1.081-3.092-1.705-3.92-1.387s-1.866,0-2.307-0.706c-0.989-1.584-4.197,0.11-4.66,2.461 c-0.247,1.251,0.941,1.536,6.5,1.564l6.802,0.034L221.085,173.177L221.085,173.177z M202.168,157.831 c0.619-1.358,1.434-2.278,1.812-2.044s0.687-0.231,0.687-1.031c0-0.801-0.375-1.456-0.833-1.456c-1.585,0-0.827-4.904,0.908-5.875 c0.958-0.536,1.403-1.313,0.989-1.727s-1.665,0.228-2.781,1.425c-1.116,1.197-2.497,2.177-3.069,2.177 c-0.636,0-0.784,1.167-0.382,3c0.415,1.887,0.259,3-0.421,3c-0.594,0-1.079,0.606-1.079,1.347s-1.012,1.835-2.25,2.432 c-2.055,0.991-1.923,1.091,1.521,1.153C200.345,160.287,201.251,159.843,202.168,157.831L202.168,157.831z M220.472,145.211 c-2.901-1.134-3.472-1.06-3.472,0.45c0,0.942,0.838,1.201,2.722,0.841C222.166,146.034,222.242,145.902,220.472,145.211z M225.51,237.316c-1.235-1.999,0.711-7.932,3.12-9.511c3.608-2.364,4.555-1.028,2.686,3.787 C228.866,237.906,227.007,239.738,225.51,237.316z M303,223.299c-1.207-0.78-1.049-0.972,0.809-0.985 c1.288-0.009,2.036,0.427,1.691,0.985C304.757,224.502,304.861,224.502,303,223.299z M308.768,223.131 c0.581-0.581,1.647-0.86,2.368-0.619c0.749,0.25,0.296,0.703-1.057,1.057C308.417,224.003,308.026,223.873,308.768,223.131z M332.584,223.549c-0.412-0.413-2.56-0.778-4.772-0.813c-2.57-0.04-4.341-0.632-4.904-1.638c-0.485-0.866-1.963-1.846-3.284-2.178 c-2.718-0.682-4.415-3.62-2.092-3.62c0.808,0,1.469,0.499,1.469,1.108c0,0.668,0.946,0.871,2.381,0.511 c1.31-0.329,3.897-0.097,5.75,0.514c3.662,1.209,9.913,6.867,7.586,6.867C333.956,224.299,332.996,223.962,332.584,223.549z M285.377,217.049c-1.084-1.238-2.625-3.122-3.424-4.187c-1.322-1.763-1.284-1.874,0.418-1.235 c1.503,0.564,1.771,0.321,1.363-1.238c-0.358-1.369-0.097-1.782,0.888-1.405c0.767,0.295,1.644,1.723,1.947,3.175 s0.975,3.421,1.491,4.376C289.976,220.076,288.309,220.395,285.377,217.049L285.377,217.049z M303,217.422 c0-2.482,2.795-4.942,3.392-2.985c0.229,0.749,0.67,2.15,0.98,3.113c0.434,1.347-0.005,1.75-1.904,1.75 C303.72,219.299,303,218.751,303,217.422z M295.835,217.626c-4.136-1.095-1.199-5.807,4.809-7.714 c1.762-0.559,2.106-0.256,2.106,1.859c0,1.39-0.363,2.528-0.808,2.528s-1.093,0.9-1.442,2 C299.874,218.273,299.103,218.492,295.835,217.626z M308,214.358c0-0.582,0.45-1.059,1-1.059s1,0.198,1,0.441s-0.45,0.719-1,1.059 S308,214.941,308,214.358z M306.025,204.854c-2.448-5.373-2.521-6.555-0.408-6.555c1.124,0,1.457,0.609,1.094,2 c-0.343,1.312-0.031,2,0.908,2c0.787,0,1.87,1.154,2.406,2.565c1.333,3.506,1.228,4.435-0.5,4.435 C308.714,209.299,307.139,207.299,306.025,204.854z M104,197.299c0-1.264,2.043-1.264,4,0c1.169,0.755,0.893,0.973-1.25,0.985 C105.238,198.292,104,197.849,104,197.299z M99.373,196.273c-0.565-0.565-2.411-1.127-4.103-1.25 c-3.217-0.234-3.499-1.723-0.327-1.723c2.62,0,8.216,2.506,7.406,3.317C101.4,197.566,100.571,197.471,99.373,196.273z M304,193.858c0-0.243,0.45-0.719,1-1.059s1-0.141,1,0.441s-0.45,1.059-1,1.059S304,194.101,304,193.858z M315.135,184.875 c0.387-1.973,1.408-2.685,6.615-4.614c2.25-0.834,3.26-1.859,3.282-3.333c0.051-3.427,2.121-5.339,4.968-4.591l2.5,0.657 l-2.756,1.316c-1.516,0.724-2.705,1.805-2.642,2.402c0.33,3.125-1.538,5.406-5.434,6.634c-2.292,0.722-4.783,1.78-5.534,2.351 C315.082,186.498,314.853,186.31,315.135,184.875L315.135,184.875z M131.382,152.317c-2.327-0.94-6.382-6.85-6.382-9.302 c0-0.852,0.563-1.776,1.25-2.053c0.794-0.321,0.655-0.533-0.381-0.583c-1.066-0.052-2.012-1.591-2.729-4.439 c-1.412-5.607-3.194-6.996-9.339-7.279c-2.751-0.126-5.275-0.503-5.609-0.837c-0.334-0.334,11.561-0.549,26.434-0.477 c22.558,0.108,27.042,0.364,27.042,1.542c0,0.776-0.402,1.412-0.892,1.412c-0.491,0-0.612,0.453-0.27,1.007 c0.342,0.554-0.081,1.277-0.941,1.607c-0.898,0.344-1.563,1.78-1.563,3.372c0,2.809-1.337,3.739-8,5.566 c-1.375,0.377-3.175,1.247-4,1.933c-0.825,0.686-2.738,1.541-4.25,1.901s-2.75,1.32-2.75,2.134s-0.398,1.481-0.883,1.481 s-1.119,0.9-1.406,2C136.153,153.432,134.788,153.693,131.382,152.317L131.382,152.317z M159.079,148.039 c-4.144-2.122-3.463-3.352,1.901-3.433c4.277-0.065,5.02,0.203,5.02,1.809c0,1.036-0.413,1.884-0.918,1.884s-1.518,0.22-2.25,0.49 S160.411,148.721,159.079,148.039L159.079,148.039z M235.652,137.034c-1.591-1.163-1.465-1.522,1.559-4.444 c1.922-1.857,5.056-3.573,7.54-4.128c4.315-0.964,6.128,0.131,2,1.208c-1.238,0.323-3.587,1.668-5.221,2.99 c-2.568,2.078-2.789,2.622-1.628,4.021c1.159,1.396,1.078,1.618-0.588,1.618C238.251,138.299,236.603,137.73,235.652,137.034z M366.5,137.299c0.34-0.55,1.293-1,2.118-1s1.222,0.45,0.882,1c-0.34,0.55-1.293,1-2.118,1S366.16,137.849,366.5,137.299z M75.87,135.938c-2.152-1.585-1.185-3.639,1.713-3.639c1.704,0,2.417,0.558,2.417,1.893C80,136.558,77.911,137.441,75.87,135.938 L75.87,135.938z M57.022,129.861c-3.123-0.662-4.968-1.477-4.29-1.896c1.56-0.964,8.262-0.584,10.646,0.605 c1.281,0.638,2.114,0.552,2.623-0.271c0.579-0.938,1.27-0.926,3.101,0.054c2.262,1.211,2.277,1.291,0.377,2.033 C66.868,131.406,63.668,131.271,57.022,129.861z M76,130.151c0-0.597-0.9-0.85-2-0.562c-1.3,0.34-2,0.031-2-0.883 c0-0.941,1.159-1.406,3.5-1.406c3.631,0,4.956,2.227,2,3.362C76.675,130.978,76,130.748,76,130.151L76,130.151z M80,130.299 c0-0.55,0.675-1,1.5-1s1.5,0.45,1.5,1s-0.675,1-1.5,1S80,130.849,80,130.299z M84,129.873c0-0.785-0.787-1.632-1.75-1.884 c-0.963-0.252-0.314-0.51,1.441-0.573s3.469,0.334,3.809,0.884c0.34,0.55,1.604,0.955,2.809,0.9c2.04-0.093,2.018-0.155-0.309-0.9 s-2.349-0.808-0.309-0.9c1.205-0.055,2.469,0.35,2.809,0.9s1.491,1,2.559,1c1.068,0,1.941,0.45,1.941,1c0,0.564-2.833,1-6.5,1 C85.537,131.299,84,130.962,84,129.873z M322.543,130.368c-0.316-0.512-0.089-1.232,0.506-1.599 c1.464-0.905,7.951,0.381,7.951,1.575C331,131.575,323.302,131.597,322.543,130.368L322.543,130.368z M332.5,130.299 c-0.731-1.183,0.248-1.183,3,0c1.928,0.829,1.921,0.862-0.191,0.93C334.104,131.268,332.84,130.849,332.5,130.299z M95.271,127.695 c0.332-0.332,1.195-0.368,1.917-0.079c0.798,0.319,0.561,0.556-0.604,0.604C95.529,128.264,94.939,128.027,95.271,127.695 L95.271,127.695z M1.242,120.47c-0.992-0.63-1.204-13.248-1-59.735L0.5,1.799l61.14-0.258l61.14-0.258l0.532,2.258 c0.753,3.197,0.842,114.197,0.093,116.148c-0.558,1.455-6.391,1.608-60.761,1.594C29.564,121.276,1.934,120.909,1.242,120.47 L1.242,120.47z M96,67.299v-42h6.441c3.803,0,6.734-0.475,7.157-1.159c0.422-0.682-0.995-2.755-3.448-5.043l-4.164-3.884 l-43.41,0.293c-23.876,0.161-43.785,0.679-44.243,1.15c-0.767,0.79,8.322,9.845,13.318,13.269c1.183,0.81,5.38,1.744,9.327,2.075 c8.695,0.729,12.619,3.027,15.75,9.223c2.772,5.486,2.305,7.726-3.247,15.576c-8.649,12.229-10.311,12.317-17.065,0.91 c-1.02-1.722-1.243-1.673-3.74,0.824c-3.052,3.052-2.894,3.949,1.983,11.267c4.418,6.629,7.62,8.776,13.861,9.293 c4.698,0.39,5.493,0.134,8.897-2.854c2.056-1.805,5.693-6.278,8.084-9.939c4.756-7.286,10.599-13.002,13.285-12.996 c2.809,0.006,8.093,3.748,10.221,7.237c1.797,2.947,1.987,5.064,1.991,22.076L87,101.434l3.25,3.915 c1.787,2.153,3.813,3.923,4.5,3.933C95.73,109.295,96,100.242,96,67.299z M82.452,45.225C76.514,38.98,70.879,37.79,63.96,41.32 L60,43.34l-0.022-2.77c-0.025-3.096-3.171-10.654-4.874-11.706C54.497,28.488,54,27.522,54,26.716c0-1.239,2.516-1.423,16.25-1.191 l16.25,0.275l0.286,9.774C87.147,47.882,86.451,49.432,82.452,45.225z M132.242,120.474c-0.992-0.633-1.204-13.255-1-59.739 L131.5,1.799l4-0.5c2.2-0.275,29.766-0.38,61.258-0.234l57.258,0.266l-0.258,59.734l-0.258,59.734l-60,0.239 C160.5,121.17,132.934,120.916,132.242,120.474z M227.239,67.549l0.261-41.75l6.5-0.5c3.591-0.276,6.5-0.974,6.5-1.559 c0-0.582-1.303-2.607-2.895-4.5l-2.895-3.441l-43.605-0.252c-28.655-0.166-44.119,0.101-45.105,0.777 c-1.236,0.847-0.442,2.003,4.5,6.554c8.181,7.533,11.53,9.577,22,13.426c4.95,1.82,10.385,4.215,12.078,5.324 c3.883,2.543,7.42,7.884,8.134,12.28l0.55,3.391h-6.663c-8.226,0-12.942,1.875-15.573,6.19c-4.375,7.176-0.996,17.345,6.597,19.851 c5.304,1.751,13.788,0.615,18.449-2.469c5.018-3.321,7.176-2.52,15.35,5.695c4.748,4.772,6.854,7.874,8.982,13.233 c2.882,7.257,4.23,9.5,5.708,9.5C226.588,109.299,227.095,90.512,227.239,67.549L227.239,67.549z M209.905,71.275 c-5.263-5.528-5.666-6.309-6.78-13.176c-1.754-10.807-5.038-16.687-13.7-24.533c-4.083-3.698-7.424-7.082-7.424-7.519 s7.988-0.672,17.75-0.521l17.75,0.273l0.267,25.75c0.21,20.287-0.002,25.734-1,25.676C216.07,77.184,212.982,74.507,209.905,71.275 z M263.121,119.945c-0.827-0.997-1.067-17.273-0.879-59.758L262.5,1.799l61.258-0.258l61.258-0.258l-0.258,59.758l-0.258,59.758 l-60.121,0.258C274.46,121.271,264.065,121.082,263.121,119.945z M357.239,67.549l0.261-41.75l6-0.305 c3.3-0.168,6.363-0.666,6.806-1.106c1.143-1.136-3.717-6.602-7.128-8.015c-3.328-1.379-86.445-1.144-87.835,0.248 c-1.005,1.006,11.95,13.46,15.344,14.75c1.343,0.511,4.101,0.934,6.127,0.94C303.676,32.333,316,36.739,316,39.17 c0,0.353-4.727,4.205-10.504,8.561s-11.231,8.722-12.119,9.704c-2.368,2.617-1.146,5.559,5.032,12.114 c4.956,5.259,5.79,5.753,9.755,5.785c17.343,0.141,32.843,9.963,41.973,26.598c2.224,4.052,4.672,7.367,5.442,7.367 C356.751,109.299,357.02,102.525,357.239,67.549L357.239,67.549z M339,75.683c-4.615-3.904-10.67-7.794-15.741-10.114 c-4.532-2.073-8.245-4.076-8.25-4.451c-0.01-0.726,7.042-7.561,13.241-12.836c2.063-1.755,3.75-3.846,3.75-4.647 c0-1.907-9.688-12.124-13.236-13.959c-1.52-0.786-2.764-2.093-2.764-2.903c0-1.236,2.509-1.474,15.5-1.474 c11.664,0,15.532,0.309,15.629,1.25c0.495,4.784,0.489,53.742-0.008,54.512C346.78,81.593,343.125,79.173,339,75.683z M327.077,102.376c3.729-3.729,3.959-8.761,0.581-12.688c-1.927-2.24-3.169-2.722-7.008-2.722c-6.398,0-9.65,3.011-9.65,8.935 c0,3.606,0.494,4.643,3.25,6.815C318.751,106.263,323.311,106.143,327.077,102.376z"/><path id="path3309" fill="#101010" d="M105.75,247.68c-0.291-0.484-0.156-3.131,0.301-5.881 c1.414-8.512,1.186-10.312-1.483-11.718c-3.59-1.892-8.568-9.281-8.568-12.717c0-1.863,0.773-3.493,2.096-4.42 c1.523-1.066,1.908-2.059,1.41-3.629c-0.421-1.325-1.236-1.95-2.107-1.616c-1.497,0.574-6.398-1.251-6.398-2.383 c0-1.019-9.043-4.74-13.306-5.474c-2.093-0.36-4.481-1.418-5.306-2.35c-7.612-8.599-15.016-15.294-8.978-8.117 c1.424,1.692,2.589,3.6,2.589,4.24c0,1.508-4.057-2.891-6.517-7.067c-1.053-1.788-2.499-3.25-3.214-3.25 c-2.213,0-5.262-6.219-5.266-10.742c-0.003-3.156-0.516-4.561-2.004-5.491c-1.1-0.687-2.01-1.703-2.022-2.258 c-0.012-0.555-0.951-2.134-2.085-3.509c-2.017-2.444-2.052-2.449-1.571-0.25c0.27,1.238,0.084,2.25-0.415,2.25 S42,162.467,42,161.449c0-4.049-13.627-10.521-16.737-7.949c-0.68,0.563-1.904,0.767-2.718,0.455s-1.747-0.138-2.072,0.388 c-0.325,0.526-0.114,0.956,0.468,0.956S22,155.778,22,156.362c0,0.585-0.831,0.922-1.846,0.75s-2.478,0.195-3.25,0.815 s-2.529,1.424-3.904,1.786c-2.417,0.637-2.409,0.607,0.25-0.91c3.385-1.931,3.547-3.505,0.361-3.505 c-2.987,0-7.182-3.267-6.211-4.838c0.395-0.639,1.592-1.162,2.659-1.162s1.941-0.45,1.941-1s-1.323-1-2.941-1 c-3.889,0-4.859-1.761-1.442-2.619c2.413-0.606,2.521-0.807,1.023-1.903c-1.517-1.11-1.414-1.403,1.092-3.102 c3.176-2.154,14.399-2.372,23.343-0.454c3.636,0.78,6.266,0.793,9.039,0.047c2.772-0.747,5.684-0.732,10.002,0.052 c3.35,0.608,6.382,0.79,6.738,0.405c0.355-0.385,0.084-0.901-0.604-1.146c-0.688-0.246-1.25-1.084-1.25-1.863 c0-1.655-1.667-1.915-2.192-0.341c-0.214,0.642-1.432,0.806-3.02,0.408c-2.395-0.601-2.552-0.908-1.564-3.075 c1.331-2.922,4.083-3.091,10.898-0.671c3.988,1.416,5.256,1.509,6.871,0.5c2.545-1.59,4.299-1.583,3.726,0.013 c-0.658,1.835,1.114,4.75,2.888,4.75c1.367,0,1.363,0.173-0.035,1.571c-2.122,2.122-1.998,2.429,0.988,2.429 c1.463,0,2.293-0.431,1.937-1.007c-0.342-0.554,0.069-1.272,0.914-1.597c0.845-0.324,1.824-2.121,2.175-3.993 c0.515-2.743,1.102-3.404,3.027-3.404c1.314,0,2.389,0.45,2.389,1s-0.675,1-1.5,1s-1.5,0.492-1.5,1.092 c0,1.855,3.45,5.591,4.76,5.154c0.683-0.228,1.247,0.41,1.255,1.42c0.013,1.55,0.165,1.601,0.985,0.333c1.554-2.404,1.155-4-1-4 c-1.452,0-2-0.667-2-2.433c0-2.733,1.25-3.275,8.062-3.493c3.444-0.111,5.014,0.352,6.405,1.89c1.014,1.12,2.427,2.036,3.141,2.036 c2.533,0,6.462,2.375,5.985,3.618c-0.293,0.762,0.88,1.713,2.961,2.399c1.895,0.625,3.446,1.522,3.446,1.992 c0,1.248-3.771,2.243-5.241,1.382c-0.692-0.405-0.434,0.205,0.574,1.356c1.778,2.029,1.777,2.122-0.014,3.081 c-1.32,0.707-2.841,0.53-5.333-0.621c-1.917-0.885-4.611-1.916-5.986-2.291c-2.042-0.556-2.131-0.703-0.491-0.799 c1.105-0.065,2.608-1.077,3.34-2.249c1.252-2.005,1.178-2.093-1.259-1.481c-2.056,0.516-2.59,0.285-2.591-1.119 c0-1.165-0.825-1.816-2.414-1.908c-1.994-0.115-2.341,0.257-1.999,2.143c0.269,1.484-0.171,2.506-1.259,2.924 c-1.461,0.561-1.382,0.845,0.622,2.249c2.009,1.407,2.094,1.719,0.686,2.507c-1.027,0.575-2.427,0.447-3.872-0.352 c-2.817-1.558-4.224-1.288-7.321,1.405c-4.151,3.61-2.921,5.265,5.808,7.813c2.613,0.763,4.75,1.908,4.75,2.546 c0,0.638,0.675,1.719,1.5,2.404c1.266,1.05,1.5,0.852,1.5-1.271c0-1.426,0.722-2.793,1.667-3.155c1.271-0.488,1.39-0.917,0.5-1.807 c-0.642-0.642-1.167-2.574-1.167-4.294c0-2.907,0.212-3.096,3.005-2.686c1.653,0.243,4.015,1.507,5.25,2.81 c2.652,2.798,3.624,2.951,5.182,0.82c1.001-1.369,1.405-1.124,2.986,1.812c1.006,1.867,3.122,3.968,4.702,4.667 c1.968,0.871,2.874,2,2.874,3.581c0,1.27,0.675,2.568,1.5,2.885c2.747,1.054,1.547,2.638-2,2.638c-3.707,0-4.288-0.758-2.25-2.936 c1.03-1.101,0.81-1.203-1.25-0.582c-1.375,0.415-3.85,0.738-5.5,0.717c-2.024-0.025-2.443,0.181-1.287,0.632 c0.942,0.368,1.842,1.119,2,1.669c0.158,0.55,1.075,0.946,2.037,0.88c0.963-0.066,1.75,0.199,1.75,0.589 c0,1.086-5.025,3.133-6.084,2.478c-1.359-0.84-5.048,0.53-4.372,1.624c0.315,0.51-0.143,0.928-1.019,0.928s-2.5,1.538-3.609,3.418 c-1.109,1.88-3.135,4.151-4.503,5.047c-2.139,1.401-2.403,2.146-1.889,5.332l0.597,3.703l-2.348-2.751 c-2.169-2.541-2.793-2.717-8.169-2.308c-3.201,0.243-5.992,0.614-6.201,0.824c-0.21,0.21-0.652,1.737-0.984,3.395 c-0.42,2.102-0.099,3.517,1.061,4.677c2.052,2.052,2.959,2.083,4.878,0.164c2.486-2.486,4.786-1.918,4.053,1 c-0.551,2.195-0.305,2.5,2.019,2.5c2.29,0,2.607,0.37,2.358,2.75c-0.247,2.36,0.114,2.796,2.545,3.074 c1.558,0.178,4.333-0.387,6.166-1.257c2.513-1.193,3.984-1.334,5.982-0.574c1.457,0.554,3.885,1.007,5.395,1.007s3.712,0.9,4.893,2 c1.181,1.1,3.26,2,4.62,2c1.557,0,3.199,1.019,4.432,2.75c1.264,1.775,3.681,3.245,6.818,4.147c5.832,1.677,10.36,3.85,10.36,4.973 c0,0.45-1.124,2.126-2.499,3.724s-2.499,3.818-2.5,4.933c-0.002,3.154-2.628,6.148-5.982,6.819c-1.968,0.394-3.375,1.459-3.961,3 c-0.5,1.314-2.058,3.63-3.463,5.146c-2.327,2.511-3.348,2.802-11.435,3.263C110.276,248.333,106.041,248.164,105.75,247.68 L105.75,247.68z M66.75,141.61c-0.963-0.252-2.537-0.252-3.5,0s-0.175,0.457,1.75,0.457S67.713,141.862,66.75,141.61z M322.323,247.612c-1.198-0.238-2.715-1.08-3.372-1.872c-1.374-1.655-4.389-1.84-8.551-0.523c-1.595,0.505-4.137,1.188-5.649,1.519 l-2.75,0.602v-7.019c0-3.86,0.389-7.019,0.865-7.019c0.475,0,2.388-1.345,4.25-2.989c1.862-1.644,3.981-2.77,4.71-2.503 s1.998-0.187,2.821-1.011c2.21-2.21,6.354-1.952,6.354,0.396c0,1.702,1.797,3.107,3.973,3.107c0.445,0,1.092-1.125,1.437-2.5 c0.813-3.238,1.909-3.163,3.67,0.25c0.78,1.512,3.106,4.351,5.169,6.308c4.278,4.059,5.025,8.667,1.909,11.782 C335.348,247.951,327.802,248.7,322.323,247.612z M198.869,244.596c-0.614-1.538-2.022-5.047-3.128-7.797s-1.961-6.012-1.901-7.25 c0.061-1.238,0.212-3.803,0.335-5.7c0.147-2.261-0.447-4.195-1.725-5.611c-1.072-1.188-1.95-3.348-1.95-4.8 c0-1.912-0.462-2.563-1.675-2.363c-0.921,0.152-1.938-0.15-2.261-0.672c-0.336-0.543-3.725-0.711-7.925-0.394 c-7.33,0.554-7.344,0.55-11.322-3.044c-3.569-3.225-3.983-4.088-3.983-8.3c0-4.117,0.476-5.177,3.833-8.534 c2.108-2.108,3.833-4.297,3.833-4.865c0-0.567,0.675-1.29,1.5-1.607c1.905-0.731,1.945-2.977,0.065-3.698 c-0.844-0.324-1.399-1.809-1.348-3.607c0.081-2.864,0.329-3.056,3.935-3.056c3.181,0,3.848-0.347,3.848-2c0-1.111-0.667-2-1.5-2 c-2.642,0-1.606-1.674,1.75-2.829l3.25-1.119l-3.343,0.315c-3.158,0.297-3.313,0.164-2.799-2.408 c0.708-3.541-0.369-4.569-1.794-1.711c-1.367,2.741-4.516,3.63-4.155,1.173c0.137-0.933,1.113-2.328,2.17-3.101 s1.921-1.942,1.921-2.598s0.754-1.338,1.675-1.516c1.101-0.212,2.254,0.898,3.364,3.236c0.929,1.957,2.114,3.559,2.634,3.559 s0.667,0.45,0.327,1c-0.988,1.599,2.128,1.154,3.5-0.5c0.685-0.825,1.895-1.5,2.69-1.5c0.96,0,1.244-0.632,0.848-1.882 c-0.377-1.187-0.033-2.098,0.933-2.469c0.841-0.323,1.53-0.151,1.53,0.382c0,0.533,0.436,0.969,0.969,0.969 s0.697-0.708,0.364-1.574c-0.429-1.118-1.335-1.391-3.124-0.942c-1.59,0.399-2.826,0.15-3.349-0.676 c-1.652-2.604-0.786-4.482,3.066-6.646c2.159-1.214,4.495-3.491,5.19-5.061c0.959-2.168,2.503-3.245,6.412-4.478 c5.687-1.793,10.064-2.092,10.896-0.746c0.298,0.482,2.54,1.38,4.983,1.995c2.442,0.615,5.118,1.795,5.946,2.623 c1.903,1.903,2.648,1.905,2.648,0.005c0-0.825,0.675-1.5,1.5-1.5s1.5,0.488,1.5,1.083c0,0.596,0.563,0.896,1.25,0.667 s1.25-0.904,1.25-1.5s0.337-1.421,0.75-1.833c0.413-0.413,0.75-0.294,0.75,0.264c0,0.571,2.403,0.984,5.5,0.946 c4.988-0.062,6.751-0.76,4.75-1.879c-0.413-0.231-0.151-0.268,0.582-0.083c0.732,0.185,2.195,0.336,3.25,0.336 c1.843,0,1.918,1.045,1.918,26.636v26.636l-4.5-0.617c-4.376-0.6-6.158,0.495-2.864,1.759c1.481,0.568,1.46,0.822-0.225,2.685 c-2.11,2.331-8.324,5.337-13.17,6.37c-4.608,0.982-3.081,2.454,1.86,1.791l4.101-0.55l-1.503,2.906 c-0.827,1.598-3.788,4.833-6.581,7.188l-5.078,4.282l0.585,5.707c0.544,5.309,0.421,5.777-1.77,6.707 c-1.503,0.638-2.469,1.995-2.671,3.75c-0.174,1.512-0.634,2.75-1.023,2.75s-1.526,1.521-2.527,3.381 c-2.026,3.761-4.324,5.177-9.891,6.094C200.311,247.339,199.889,247.151,198.869,244.596L198.869,244.596z M224.63,200.985 c-0.106-0.723-1.079-2.507-2.162-3.964c-1.083-1.457-2.8-3.821-3.817-5.254c-1.017-1.433-2.05-2.403-2.297-2.157 c-1.021,1.021,6.423,12.689,8.095,12.689C224.655,202.299,224.736,201.708,224.63,200.985L224.63,200.985z M238,191.299 c0-0.55-0.643-1-1.429-1s-2.157-0.729-3.048-1.619c-2.289-2.289-3.228-0.817-1.029,1.613C234.383,192.38,238,193.041,238,191.299z M201,185.366c0-0.513,3.488-0.851,7.75-0.75c7.578,0.179,7.757,0.128,8.043-2.317c0.212-1.809,0.036-2.119-0.638-1.122 c-0.587,0.868-1.436,1.062-2.293,0.525c-0.749-0.469-2.15-0.724-3.113-0.565c-1.129,0.186-2.116-0.672-2.778-2.414 c-0.958-2.519-2.471-2.626-2.471-0.174c0,2.417-2.483,1.683-3.958-1.169c-0.867-1.676-2.918-3.741-4.559-4.589 c-3.937-2.036-3.857-0.439,0.095,1.896l3.078,1.818l-2.036,1.897c-2.217,2.066-4.12,2.48-4.12,0.897c0-0.55,0.675-1,1.5-1 c2.388,0,1.68-1.331-1.929-3.629c-2.146-1.366-3.833-1.822-4.708-1.273c-0.75,0.471-2.038,0.649-2.863,0.395 c-0.908-0.279-2.438,0.913-3.879,3.023c-1.407,2.06-3.212,3.484-4.417,3.484c-1.121,0-1.798,0.24-1.505,0.533 s3.674,0.158,7.514-0.301c8.132-0.971,9.287-0.741,9.287,1.852c0,1.231,0.695,1.917,1.941,1.917c1.068,0,2.219,0.45,2.559,1 C198.28,186.562,201,186.614,201,185.366L201,185.366z M205.271,181.695c0.332-0.332,1.195-0.368,1.917-0.079 c0.798,0.319,0.561,0.556-0.604,0.604C205.529,182.264,204.939,182.027,205.271,181.695L205.271,181.695z M189.625,177.502 c-0.271-0.439-0.08-1.451,0.426-2.25c0.717-1.134,0.922-0.959,0.934,0.798C191,178.362,190.492,178.905,189.625,177.502z M221.085,173.177c-1.328-1.081-3.092-1.705-3.92-1.387s-1.866,0-2.307-0.706c-0.989-1.584-4.197,0.11-4.66,2.461 c-0.247,1.251,0.941,1.536,6.5,1.564l6.802,0.034L221.085,173.177L221.085,173.177z M202.168,157.831 c0.619-1.358,1.434-2.278,1.812-2.044s0.687-0.231,0.687-1.031c0-0.801-0.375-1.456-0.833-1.456c-1.585,0-0.827-4.904,0.908-5.875 c0.958-0.536,1.403-1.313,0.989-1.727s-1.665,0.228-2.781,1.425c-1.116,1.197-2.497,2.177-3.069,2.177 c-0.636,0-0.784,1.167-0.382,3c0.415,1.887,0.259,3-0.421,3c-0.594,0-1.079,0.606-1.079,1.347s-1.012,1.835-2.25,2.432 c-2.055,0.991-1.923,1.091,1.521,1.153C200.345,160.287,201.251,159.843,202.168,157.831L202.168,157.831z M220.472,145.211 c-2.901-1.134-3.472-1.06-3.472,0.45c0,0.942,0.838,1.201,2.722,0.841C222.166,146.034,222.242,145.902,220.472,145.211z M225.51,237.316c-1.235-1.999,0.711-7.932,3.12-9.511c3.608-2.364,4.555-1.028,2.686,3.787 C228.866,237.906,227.007,239.738,225.51,237.316z M303,223.299c-1.207-0.78-1.049-0.972,0.809-0.985 c1.288-0.009,2.036,0.427,1.691,0.985C304.757,224.502,304.861,224.502,303,223.299z M308.768,223.131 c0.581-0.581,1.647-0.86,2.368-0.619c0.749,0.25,0.296,0.703-1.057,1.057C308.417,224.003,308.026,223.873,308.768,223.131z M332.584,223.549c-0.412-0.413-2.56-0.778-4.772-0.813c-2.57-0.04-4.341-0.632-4.904-1.638c-0.485-0.866-1.963-1.846-3.284-2.178 c-2.718-0.682-4.415-3.62-2.092-3.62c0.808,0,1.469,0.499,1.469,1.108c0,0.668,0.946,0.871,2.381,0.511 c1.31-0.329,3.897-0.097,5.75,0.514c3.662,1.209,9.913,6.867,7.586,6.867C333.956,224.299,332.996,223.962,332.584,223.549z M303,217.422c0-2.482,2.795-4.942,3.392-2.985c0.229,0.749,0.67,2.15,0.98,3.113c0.434,1.347-0.005,1.75-1.904,1.75 C303.72,219.299,303,218.751,303,217.422z M308,214.358c0-0.582,0.45-1.059,1-1.059s1,0.198,1,0.441s-0.45,0.719-1,1.059 S308,214.941,308,214.358z M301.5,210.299c-0.34-0.55-0.141-1,0.441-1s1.059,0.45,1.059,1s-0.198,1-0.441,1 S301.84,210.849,301.5,210.299z M306.025,204.854c-2.448-5.373-2.521-6.555-0.408-6.555c1.124,0,1.457,0.609,1.094,2 c-0.343,1.312-0.031,2,0.908,2c0.787,0,1.87,1.154,2.406,2.565c1.333,3.506,1.228,4.435-0.5,4.435 C308.714,209.299,307.139,207.299,306.025,204.854z M104,197.299c0-1.264,2.043-1.264,4,0c1.169,0.755,0.893,0.973-1.25,0.985 C105.238,198.292,104,197.849,104,197.299z M99.373,196.273c-0.565-0.565-2.411-1.127-4.103-1.25 c-3.217-0.234-3.499-1.723-0.327-1.723c2.62,0,8.216,2.506,7.406,3.317C101.4,197.566,100.571,197.471,99.373,196.273z M304,193.858c0-0.243,0.45-0.719,1-1.059s1-0.141,1,0.441s-0.45,1.059-1,1.059S304,194.101,304,193.858z M301.636,186.05 c0.133-6.12,0.196-6.256,3-6.494c2.392-0.203,2.599-0.055,1.258,0.904c-1.296,0.926-1.402,1.685-0.552,3.938 c0.794,2.104,0.717,3.421-0.314,5.346C302.698,194.101,301.489,192.785,301.636,186.05z M315.135,184.875 c0.387-1.973,1.408-2.685,6.615-4.614c2.25-0.834,3.26-1.859,3.282-3.333c0.051-3.427,2.121-5.339,4.968-4.591l2.5,0.657 l-2.756,1.316c-1.516,0.724-2.705,1.805-2.642,2.402c0.33,3.125-1.538,5.406-5.434,6.634c-2.292,0.722-4.783,1.78-5.534,2.351 C315.082,186.498,314.853,186.31,315.135,184.875L315.135,184.875z M311,181.835c0-2.656-2.343-4.311-5.901-4.168l-3.28,0.132 l-0.16-22.248l-0.16-22.248l3.25,0.609c1.79,0.335,3.25,0.187,3.25-0.329c0-1.894,5.811-0.114,6.35,1.946 c0.363,1.388,1.05,1.83,2.172,1.4c0.903-0.346,3.149-0.63,4.992-0.63c2.473,0,3.517-0.524,3.986-2 c0.756-2.383,2.098-2.545,4.143-0.5c0.825,0.825,2.566,1.5,3.87,1.5c1.303,0,2.648,0.45,2.988,1s2.526,1,4.859,1 c2.333,0,4.711,0.47,5.284,1.043c0.574,0.574,4.824,1.052,9.446,1.062c6.107,0.013,9.599,0.548,12.784,1.957 c2.41,1.066,4.887,1.945,5.504,1.953c0.618,0.008,1.796,0.441,2.618,0.961c2.344,1.482-1.789,4.205-4.324,2.848 c-2.391-1.279-6.761-0.221-6.108,1.479c0.659,1.717-7.866,4.744-15.813,5.615c-0.413,0.045-0.75,1.119-0.75,2.386 c0,2.451-6.149,9.214-7.316,8.047c-0.376-0.376-0.684-2.124-0.684-3.885c0-2.626,0.718-3.676,4-5.848c2.2-1.456,4-2.769,4-2.919 c0-1.116-7.524,0.296-8.469,1.589c-0.913,1.249-2.425,1.526-6.607,1.208c-4.548-0.345-6.046-0.001-9.285,2.134 c-4.126,2.719-3.913,4.203,0.656,4.581c1.776,0.147,2.757,0.836,2.856,2.006c0.082,0.98,0.195,2.307,0.25,2.949 c0.055,0.642-0.427,1.342-1.071,1.557c-0.745,0.248-0.976-0.358-0.633-1.667c0.306-1.169,0.056-2.057-0.579-2.057 c-0.614,0-1.117,0.812-1.117,1.804c0,2.089-5.938,8.196-7.969,8.196c-0.756,0-2.169,0.719-3.14,1.599 c-1.353,1.224-1.553,2.161-0.853,4c0.502,1.321,0.736,2.401,0.52,2.401s-1.105,0.273-1.975,0.607 C311.527,183.311,311,182.955,311,181.835z M131.382,152.317c-2.327-0.94-6.382-6.85-6.382-9.302c0-0.852,0.563-1.776,1.25-2.053 c0.794-0.321,0.655-0.533-0.381-0.583c-1.066-0.052-2.012-1.591-2.729-4.439c-1.412-5.607-3.194-6.996-9.339-7.279 c-2.751-0.126-5.275-0.503-5.609-0.837c-0.334-0.334,11.561-0.549,26.434-0.477c22.558,0.108,27.042,0.364,27.042,1.542 c0,0.776-0.402,1.412-0.892,1.412c-0.491,0-0.612,0.453-0.27,1.007c0.342,0.554-0.081,1.277-0.941,1.607 c-0.898,0.344-1.563,1.78-1.563,3.372c0,2.809-1.337,3.739-8,5.566c-1.375,0.377-3.175,1.247-4,1.933 c-0.825,0.686-2.738,1.541-4.25,1.901s-2.75,1.32-2.75,2.134s-0.398,1.481-0.883,1.481s-1.119,0.9-1.406,2 C136.153,153.432,134.788,153.693,131.382,152.317L131.382,152.317z M159.079,148.039c-4.144-2.122-3.463-3.352,1.901-3.433 c4.277-0.065,5.02,0.203,5.02,1.809c0,1.036-0.413,1.884-0.918,1.884s-1.518,0.22-2.25,0.49S160.411,148.721,159.079,148.039 L159.079,148.039z M235.652,137.034c-1.591-1.163-1.465-1.522,1.559-4.444c1.922-1.857,5.056-3.573,7.54-4.128 c4.315-0.964,6.128,0.131,2,1.208c-1.238,0.323-3.587,1.668-5.221,2.99c-2.568,2.078-2.789,2.622-1.628,4.021 c1.159,1.396,1.078,1.618-0.588,1.618C238.251,138.299,236.603,137.73,235.652,137.034z M366.5,137.299c0.34-0.55,1.293-1,2.118-1 s1.222,0.45,0.882,1c-0.34,0.55-1.293,1-2.118,1S366.16,137.849,366.5,137.299z M75.87,135.938 c-2.152-1.585-1.185-3.639,1.713-3.639c1.704,0,2.417,0.558,2.417,1.893C80,136.558,77.911,137.441,75.87,135.938L75.87,135.938z M57.022,129.861c-3.123-0.662-4.968-1.477-4.29-1.896c1.56-0.964,8.262-0.584,10.646,0.605c1.281,0.638,2.114,0.552,2.623-0.271 c0.579-0.938,1.27-0.926,3.101,0.054c2.262,1.211,2.277,1.291,0.377,2.033C66.868,131.406,63.668,131.271,57.022,129.861z M76,130.151c0-0.597-0.9-0.85-2-0.562c-1.3,0.34-2,0.031-2-0.883c0-0.941,1.159-1.406,3.5-1.406c3.631,0,4.956,2.227,2,3.362 C76.675,130.978,76,130.748,76,130.151L76,130.151z M80,130.299c0-0.55,0.675-1,1.5-1s1.5,0.45,1.5,1s-0.675,1-1.5,1 S80,130.849,80,130.299z M84,129.873c0-0.785-0.787-1.632-1.75-1.884c-0.963-0.252-0.314-0.51,1.441-0.573s3.469,0.334,3.809,0.884 c0.34,0.55,1.604,0.955,2.809,0.9c2.04-0.093,2.018-0.155-0.309-0.9s-2.349-0.808-0.309-0.9c1.205-0.055,2.469,0.35,2.809,0.9 s1.491,1,2.559,1c1.068,0,1.941,0.45,1.941,1c0,0.564-2.833,1-6.5,1C85.537,131.299,84,130.962,84,129.873z M322.543,130.368 c-0.316-0.512-0.089-1.232,0.506-1.599c1.464-0.905,7.951,0.381,7.951,1.575C331,131.575,323.302,131.597,322.543,130.368 L322.543,130.368z M332.5,130.299c-0.731-1.183,0.248-1.183,3,0c1.928,0.829,1.921,0.862-0.191,0.93 C334.104,131.268,332.84,130.849,332.5,130.299z M95.271,127.695c0.332-0.332,1.195-0.368,1.917-0.079 c0.798,0.319,0.561,0.556-0.604,0.604C95.529,128.264,94.939,128.027,95.271,127.695L95.271,127.695z"/></g><path fill="#949598" d="M277.333,204c-6.449,0-6.449,10,0,10C283.782,214,283.782,204,277.333,204z"/><path fill="#949598" d="M255.333,129.333c0.233-0.204,1.578,0.007,1.899,0.016c-0.165-0.359-1.826-0.916-2.166-1.041	c0.441,0.118,2.031,0.275,2.24,0.284c-0.641-0.027-1.913-0.107-2.538,0.074c1.228,0.184,2.62,0.456,3.813,0.591	c-1.013-0.168-2.159-0.321-3.153-0.524c0.606,0.129,1.812,0.473,2.421,0.542c-1.342,0.022-2.792,0.057-4.157-0.017	c1.005-0.053,3.045-0.494,4.189-0.61c-1.182-0.076-2.28-0.194-3.447-0.315c1.048,0,3.19-0.012,3.612-0.001c-1.016,0-2.032,0-3.048,0"/><path fill="#949598" d="M218.046,79.354"/></svg>